<?xml version="1.0" standalone="no"?>
<!DOCTYPE svg PUBLIC "-//W3C//DTD SVG 20010904//EN"
 "http://www.w3.org/TR/2001/REC-SVG-20010904/DTD/svg10.dtd">
<svg version="1.0" xmlns="http://www.w3.org/2000/svg"
 width="700.000000pt" height="700.000000pt" viewBox="0 0 700.000000 700.000000"
 preserveAspectRatio="xMidYMid meet">
<metadata>
Created by potrace 1.14, written by Peter Selinger 2001-2017
</metadata>
<g transform="translate(0.000000,700.000000) scale(0.100000,-0.100000)"
fill="#000000" stroke="none">
<path d="M3335 6950 c-55 -29 -111 -59 -125 -67 -14 -8 -43 -24 -65 -37 -22
-12 -168 -94 -325 -183 -157 -88 -320 -180 -364 -204 -43 -24 -94 -53 -115
-64 -20 -12 -61 -35 -91 -52 -30 -16 -73 -40 -94 -52 -22 -13 -60 -34 -85 -48
-25 -13 -59 -32 -76 -42 -16 -10 -86 -49 -155 -88 -69 -38 -296 -166 -505
-283 -209 -118 -486 -273 -615 -345 -129 -72 -271 -152 -315 -177 -44 -25
-131 -74 -194 -109 -179 -99 -205 -134 -207 -275 -2 -137 34 -203 145 -266 31
-17 72 -40 91 -51 19 -11 89 -50 155 -87 66 -38 143 -81 171 -97 456 -254 582
-329 571 -340 -7 -6 -48 -31 -92 -55 -139 -77 -657 -368 -726 -409 -130 -76
-158 -144 -134 -322 6 -43 36 -93 72 -121 24 -18 331 -193 753 -428 118 -66
227 -129 242 -139 15 -11 29 -19 32 -19 3 0 316 -175 576 -323 19 -11 55 -31
80 -45 25 -14 151 -85 280 -157 129 -73 251 -142 270 -152 19 -11 238 -134
485 -274 l450 -254 71 1 c73 0 125 20 244 90 25 14 173 98 330 186 287 162
381 215 412 233 9 6 35 20 56 32 22 12 113 63 203 114 90 51 184 103 209 117
25 14 123 69 219 124 95 54 177 98 182 98 5 0 9 5 9 10 0 6 5 10 11 10 5 0 56
26 112 59 87 50 531 301 707 399 338 188 560 317 582 339 41 40 58 85 61 165
4 89 -13 143 -57 189 -28 28 -192 128 -366 223 -19 10 -107 59 -195 109 -88
49 -176 99 -195 110 -108 59 -179 101 -177 103 1 0 29 16 62 34 79 43 360 202
405 229 19 11 42 24 50 28 8 4 69 38 134 75 66 37 121 68 122 68 2 0 27 14 56
31 29 17 82 47 118 67 108 59 148 90 177 140 25 42 28 57 28 132 -1 47 -7 102
-13 122 -19 53 -77 106 -178 162 -49 27 -105 58 -124 69 -120 67 -202 113
-250 140 -30 17 -97 55 -149 84 -51 29 -95 53 -97 53 -3 0 -21 11 -42 23 -20
13 -64 39 -97 57 -33 18 -258 144 -500 280 -242 136 -467 262 -500 280 -33 18
-64 36 -70 40 -5 4 -35 21 -65 37 -53 29 -276 153 -680 380 -107 61 -215 121
-240 135 -25 14 -119 67 -210 118 -195 109 -194 109 -279 116 -66 6 -68 5
-166 -46z m-1673 -3145 c20 -14 40 -25 44 -25 3 0 32 -15 63 -34 31 -19 81
-47 111 -64 30 -16 87 -48 127 -71 39 -22 89 -50 110 -62 21 -12 56 -31 78
-44 266 -150 347 -196 385 -217 45 -25 293 -165 627 -354 199 -112 228 -124
299 -118 65 5 107 20 184 64 36 20 85 48 110 62 25 14 187 105 360 203 173 98
329 186 345 195 17 9 176 99 355 200 179 101 341 192 360 203 177 101 154 96
245 45 22 -13 76 -43 120 -67 44 -24 117 -66 163 -93 45 -26 85 -48 87 -48 2
0 26 -13 53 -29 53 -31 100 -57 214 -120 43 -24 80 -46 83 -50 2 -5 -28 -26
-68 -48 -62 -34 -181 -102 -342 -193 -22 -13 -60 -34 -85 -48 -25 -13 -70 -39
-100 -56 -30 -18 -62 -35 -70 -39 -8 -4 -31 -17 -50 -28 -19 -12 -93 -54 -165
-94 -123 -69 -371 -208 -480 -270 -27 -16 -86 -48 -130 -73 -44 -24 -109 -61
-145 -82 -36 -21 -87 -50 -115 -65 -27 -16 -133 -75 -234 -133 -102 -57 -214
-120 -250 -139 -36 -20 -70 -39 -76 -43 -10 -8 -198 -114 -313 -177 -57 -32
-65 -33 -85 -20 -12 7 -49 29 -82 47 -54 30 -403 226 -482 271 -35 20 -42 24
-238 134 -71 40 -146 82 -165 93 -19 12 -52 30 -72 41 -31 17 -212 118 -468
263 -812 458 -1074 606 -1112 627 -37 20 -45 28 -35 37 10 9 192 112 452 255
28 15 113 64 190 108 77 44 145 80 150 81 6 0 27 -11 47 -25z"/>
<path d="M6369 2065 c-20 -7 -72 -33 -115 -58 -43 -24 -95 -53 -114 -64 -19
-11 -181 -102 -360 -203 -179 -101 -341 -192 -360 -203 -43 -24 -321 -181
-375 -212 -22 -12 -57 -32 -77 -44 -21 -11 -54 -30 -73 -41 -58 -33 -97 -55
-160 -90 -134 -74 -411 -231 -425 -240 -8 -6 -21 -13 -28 -16 -15 -7 -148 -82
-532 -299 -135 -76 -249 -138 -255 -138 -5 0 -77 38 -160 85 -168 95 -225 127
-305 171 -30 17 -88 50 -128 74 -41 24 -75 43 -77 43 -2 0 -77 42 -166 93 -90
51 -195 111 -234 132 -86 47 -95 52 -273 154 -78 44 -144 81 -147 81 -3 0 -18
9 -33 19 -15 10 -157 92 -317 181 -373 209 -338 189 -640 360 -143 81 -287
162 -319 180 -85 47 -153 51 -226 13 -69 -35 -108 -89 -117 -160 -11 -97 42
-180 149 -234 24 -12 104 -57 178 -99 74 -43 160 -91 190 -108 53 -29 138 -77
245 -137 135 -76 906 -511 945 -533 25 -14 146 -82 270 -152 124 -70 242 -137
263 -149 21 -12 68 -38 105 -59 37 -21 74 -41 82 -45 8 -4 24 -13 35 -20 11
-7 52 -30 90 -51 143 -80 351 -197 375 -212 113 -67 157 -83 221 -80 72 3 91
12 324 144 83 47 175 99 205 115 30 16 62 36 71 43 8 8 19 14 24 14 5 0 58 29
119 64 61 35 190 107 286 161 96 54 191 108 210 119 19 12 45 27 56 33 52 28
599 336 929 523 110 62 223 126 250 141 28 15 173 97 323 182 312 177 340 200
349 300 14 150 -137 270 -278 222z"/>
</g>
</svg>
